<svg width="18" height="19" viewBox="0 0 18 19" fill="none" xmlns="http://www.w3.org/2000/svg">
<path d="M6.25 0.833374C6.75626 0.833374 7.16667 1.24378 7.16667 1.75004V2.66671H10.8333V1.75004C10.8333 1.24378 11.2437 0.833374 11.75 0.833374C12.2563 0.833374 12.6667 1.24378 12.6667 1.75004V2.66671H15.4167C16.4292 2.66671 17.25 3.48752 17.25 4.50004V16.4167C17.25 17.4292 16.4292 18.25 15.4167 18.25H2.58333C1.57081 18.25 0.75 17.4292 0.75 16.4167V4.50004C0.75 3.48752 1.57081 2.66671 2.58333 2.66671H5.33333V1.75004C5.33333 1.24378 5.74374 0.833374 6.25 0.833374ZM5.33333 4.50004H2.58333V7.25004H15.4167V4.50004H12.6667V5.41671C12.6667 5.92297 12.2563 6.33337 11.75 6.33337C11.2437 6.33337 10.8333 5.92297 10.8333 5.41671V4.50004H7.16667V5.41671C7.16667 5.92297 6.75626 6.33337 6.25 6.33337C5.74374 6.33337 5.33333 5.92297 5.33333 5.41671V4.50004ZM15.4167 9.08337H2.58333V16.4167H15.4167V9.08337Z" fill="#1C1D22"/>
</svg>
