<svg width="20" height="20" viewBox="0 0 20 20" fill="none" xmlns="http://www.w3.org/2000/svg">
<path fill-rule="evenodd" clip-rule="evenodd" d="M19.4549 3.41575C19.6471 3.70687 19.615 4.10248 19.3588 4.35876L10.1664 13.5511C10.0721 13.6454 9.95451 13.7128 9.82558 13.7465L5.99716 14.7465C5.87229 14.7791 5.74358 14.7784 5.62265 14.7476C5.49408 14.7149 5.37431 14.6482 5.27729 14.5511C5.08902 14.3629 5.01468 14.0889 5.08197 13.8313L6.08197 10.0028C6.11144 9.89003 6.16673 9.77861 6.24322 9.69121L15.4697 0.46967C15.5504 0.388906 15.6477 0.32846 15.7536 0.291631C15.8321 0.264324 15.9153 0.25 16 0.25C16.1989 0.25 16.3897 0.329017 16.5303 0.46967L19.3588 3.2981C19.3954 3.33471 19.4274 3.37416 19.4549 3.41575ZM17.7678 3.82843L16 2.06066L7.48184 10.5788L6.85685 12.9716L9.24962 12.3466L17.7678 3.82843Z" fill="#FDBF46"/>
<path d="M17.6414 15.1603C17.9148 12.8227 18.0018 10.4688 17.9023 8.12079C17.8976 8.00837 17.9399 7.89898 18.0194 7.81942L19.0027 6.83609C19.1236 6.71519 19.3302 6.79194 19.3415 6.96254C19.5265 9.75219 19.4564 12.5545 19.1312 15.3346C18.8946 17.3571 17.2703 18.9421 15.2583 19.167C11.7917 19.5544 8.20835 19.5544 4.74177 19.167C2.72971 18.9421 1.10538 17.3571 0.868826 15.3346C0.454288 11.7903 0.454288 8.20973 0.868826 4.66543C1.10538 2.6429 2.72971 1.05789 4.74177 0.833012C7.37152 0.539099 10.0685 0.468149 12.7306 0.620161C12.9022 0.629958 12.9804 0.837575 12.8589 0.959093L11.8664 1.95165C11.7877 2.03034 11.6798 2.07261 11.5685 2.06885C9.34211 1.99376 7.10055 2.07872 4.90838 2.32373C3.57827 2.47239 2.51278 3.522 2.35867 4.83968C1.95767 8.26821 1.95767 11.7318 2.35867 15.1603C2.51278 16.478 3.57827 17.5276 4.90838 17.6763C8.26423 18.0513 11.7358 18.0513 15.0916 17.6763C16.4218 17.5276 17.4872 16.478 17.6414 15.1603Z" fill="#FDBF46"/>
</svg>
