<svg width="242" height="22" viewBox="0 0 242 22" fill="none" xmlns="http://www.w3.org/2000/svg">
<path d="M19 5.2L16.74 18.16C16.7 18.4 16.58 18.6 16.38 18.76C16.18 18.92 15.94 19 15.66 19H12.8C12.5333 19 12.2933 18.92 12.08 18.76C11.88 18.6 11.76 18.3933 11.72 18.14L10.18 9.16C10.14 8.85333 10.1 8.55333 10.06 8.26C10.02 7.95333 9.98 7.65333 9.94 7.36H9.56C9.53333 7.65333 9.5 7.95333 9.46 8.26C9.42 8.56667 9.38 8.86667 9.34 9.16L7.8 18.14C7.76 18.3933 7.63333 18.6 7.42 18.76C7.22 18.92 6.98667 19 6.72 19H3.84C3.57333 19 3.33333 18.92 3.12 18.76C2.92 18.6 2.8 18.4 2.76 18.16L0.5 5.2H3.58L5.02 14.8C5.06 15.0933 5.09333 15.4067 5.12 15.74C5.14667 16.0733 5.17333 16.4267 5.2 16.8H5.58C5.63333 16.48 5.68667 16.1467 5.74 15.8C5.80667 15.44 5.86 15.1067 5.9 14.8L7.42 6.14C7.46 5.86 7.58 5.63333 7.78 5.46C7.98 5.28667 8.22 5.2 8.5 5.2H11.02C11.3 5.2 11.5333 5.28667 11.72 5.46C11.92 5.63333 12.04 5.86 12.08 6.14L13.62 14.82C13.6733 15.14 13.7267 15.4733 13.78 15.82C13.8333 16.1533 13.88 16.48 13.92 16.8H14.32C14.3467 16.48 14.3733 16.1467 14.4 15.8C14.44 15.4533 14.4733 15.1333 14.5 14.84L15.92 5.2H19ZM25.0792 8.86C26.7459 8.86 27.9392 9.14667 28.6592 9.72C29.3926 10.28 29.7592 11.12 29.7592 12.24C29.7726 13.1467 29.5459 13.8267 29.0792 14.28C28.6126 14.72 27.8059 14.94 26.6592 14.94H21.1392V13.28H25.8392C26.2926 13.28 26.5792 13.1867 26.6992 13C26.8326 12.8 26.8992 12.5267 26.8992 12.18C26.8859 11.7133 26.7459 11.3933 26.4792 11.22C26.2259 11.0333 25.7926 10.94 25.1792 10.94C24.6326 10.94 24.2059 11.0133 23.8992 11.16C23.5926 11.3067 23.3792 11.5867 23.2592 12C23.1392 12.4133 23.0792 13.0133 23.0792 13.8C23.0792 14.6267 23.1526 15.2667 23.2992 15.72C23.4459 16.16 23.6926 16.4667 24.0392 16.64C24.3992 16.8133 24.8926 16.9 25.5192 16.9C25.9726 16.9 26.5326 16.8867 27.1992 16.86C27.8792 16.82 28.5592 16.76 29.2392 16.68L29.5192 18.5C29.1326 18.6867 28.6926 18.8333 28.1992 18.94C27.7059 19.0467 27.1992 19.12 26.6792 19.16C26.1592 19.2133 25.6592 19.24 25.1792 19.24C23.9259 19.24 22.9126 19.06 22.1392 18.7C21.3792 18.3267 20.8259 17.76 20.4792 17C20.1459 16.24 19.9792 15.2667 19.9792 14.08C19.9792 12.7867 20.1526 11.76 20.4992 11C20.8459 10.24 21.3926 9.69333 22.1392 9.36C22.8859 9.02667 23.8659 8.86 25.0792 8.86ZM34.6683 5L34.6483 15.84C34.6483 16.1733 34.7483 16.4267 34.9483 16.6C35.1483 16.76 35.4416 16.84 35.8283 16.84H36.6283L36.9683 18.84C36.8083 18.92 36.5816 18.9867 36.2883 19.04C35.9949 19.1067 35.6949 19.1533 35.3883 19.18C35.0816 19.22 34.8216 19.24 34.6083 19.24C33.7149 19.24 33.0083 19.0067 32.4883 18.54C31.9683 18.0733 31.7083 17.42 31.7083 16.58V5H34.6683ZM42.8508 8.86C43.2108 8.86 43.6041 8.88 44.0308 8.92C44.4574 8.94667 44.8841 9.00667 45.3108 9.1C45.7508 9.18 46.1508 9.3 46.5108 9.46L46.1908 11.32C45.6574 11.3067 45.1441 11.2933 44.6508 11.28C44.1708 11.2667 43.7374 11.26 43.3508 11.26C42.7508 11.26 42.2774 11.34 41.9308 11.5C41.5841 11.66 41.3308 11.9467 41.1708 12.36C41.0241 12.76 40.9508 13.32 40.9508 14.04C40.9508 14.7733 41.0241 15.3467 41.1708 15.76C41.3308 16.1733 41.5841 16.46 41.9308 16.62C42.2774 16.78 42.7508 16.86 43.3508 16.86C43.5641 16.86 43.8374 16.8533 44.1708 16.84C44.5041 16.8267 44.8641 16.8133 45.2508 16.8C45.6374 16.7733 46.0174 16.7333 46.3908 16.68L46.6708 18.56C46.1374 18.8 45.5308 18.9733 44.8508 19.08C44.1708 19.1867 43.4974 19.24 42.8308 19.24C41.6041 19.24 40.6241 19.0733 39.8908 18.74C39.1708 18.3933 38.6508 17.84 38.3308 17.08C38.0108 16.32 37.8508 15.3067 37.8508 14.04C37.8508 12.7733 38.0108 11.76 38.3308 11C38.6641 10.24 39.1974 9.69333 39.9308 9.36C40.6641 9.02667 41.6374 8.86 42.8508 8.86ZM53.0094 8.86C54.2494 8.86 55.2427 9.03333 55.9894 9.38C56.736 9.71333 57.2694 10.26 57.5894 11.02C57.9227 11.78 58.0894 12.8 58.0894 14.08C58.0894 15.3333 57.9227 16.34 57.5894 17.1C57.2694 17.86 56.736 18.4067 55.9894 18.74C55.2427 19.0733 54.2494 19.24 53.0094 19.24C51.7827 19.24 50.7894 19.0733 50.0294 18.74C49.2827 18.4067 48.7427 17.86 48.4094 17.1C48.076 16.34 47.9094 15.3333 47.9094 14.08C47.9094 12.8 48.076 11.78 48.4094 11.02C48.7427 10.26 49.2827 9.71333 50.0294 9.38C50.7894 9.03333 51.7827 8.86 53.0094 8.86ZM53.0094 11.02C52.5027 11.02 52.1027 11.1067 51.8094 11.28C51.516 11.4533 51.3094 11.76 51.1894 12.2C51.0694 12.64 51.0094 13.2667 51.0094 14.08C51.0094 14.88 51.0694 15.5 51.1894 15.94C51.3094 16.38 51.516 16.6867 51.8094 16.86C52.1027 17.02 52.5027 17.1 53.0094 17.1C53.516 17.1 53.916 17.02 54.2094 16.86C54.5027 16.6867 54.7094 16.38 54.8294 15.94C54.9494 15.5 55.0094 14.88 55.0094 14.08C55.0094 13.2667 54.9494 12.64 54.8294 12.2C54.7094 11.76 54.5027 11.4533 54.2094 11.28C53.916 11.1067 53.516 11.02 53.0094 11.02ZM72.6263 8.86C73.5196 8.86 74.1996 9.09333 74.6663 9.56C75.1329 10.0267 75.3663 10.7067 75.3663 11.6V19H72.4263V12.52C72.4263 12.1067 72.3463 11.8133 72.1863 11.64C72.0263 11.4533 71.7463 11.36 71.3463 11.36C71.1063 11.36 70.8796 11.3933 70.6662 11.46C70.4529 11.5267 70.2063 11.6333 69.9262 11.78C69.6463 11.9267 69.3063 12.1267 68.9062 12.38L68.7463 10.74C69.3863 10.1133 70.0129 9.64667 70.6263 9.34C71.2529 9.02 71.9196 8.86 72.6263 8.86ZM62.4663 9.12L62.7663 11.08L63.0663 11.34V19H60.1063V9.12H62.4663ZM66.4663 8.86C67.3463 8.86 68.0129 9.09333 68.4663 9.56C68.9329 10.0133 69.1663 10.6933 69.1663 11.6V19H66.3263V12.52C66.3263 12.0933 66.2329 11.7933 66.0463 11.62C65.8729 11.4467 65.5996 11.36 65.2263 11.36C64.9996 11.36 64.7729 11.3933 64.5463 11.46C64.3329 11.5133 64.0796 11.6133 63.7863 11.76C63.5063 11.9067 63.1596 12.1133 62.7463 12.38L62.5663 10.74C63.2196 10.1133 63.8529 9.64667 64.4663 9.34C65.0796 9.02 65.7463 8.86 66.4663 8.86ZM82.4034 8.86C84.0701 8.86 85.2634 9.14667 85.9834 9.72C86.7168 10.28 87.0834 11.12 87.0834 12.24C87.0968 13.1467 86.8701 13.8267 86.4034 14.28C85.9368 14.72 85.1301 14.94 83.9834 14.94H78.4634V13.28H83.1634C83.6168 13.28 83.9034 13.1867 84.0234 13C84.1568 12.8 84.2234 12.5267 84.2234 12.18C84.2101 11.7133 84.0701 11.3933 83.8034 11.22C83.5501 11.0333 83.1168 10.94 82.5034 10.94C81.9568 10.94 81.5301 11.0133 81.2234 11.16C80.9168 11.3067 80.7034 11.5867 80.5834 12C80.4634 12.4133 80.4034 13.0133 80.4034 13.8C80.4034 14.6267 80.4768 15.2667 80.6234 15.72C80.7701 16.16 81.0168 16.4667 81.3634 16.64C81.7234 16.8133 82.2168 16.9 82.8434 16.9C83.2968 16.9 83.8568 16.8867 84.5234 16.86C85.2034 16.82 85.8834 16.76 86.5634 16.68L86.8434 18.5C86.4568 18.6867 86.0168 18.8333 85.5234 18.94C85.0301 19.0467 84.5234 19.12 84.0034 19.16C83.4834 19.2133 82.9834 19.24 82.5034 19.24C81.2501 19.24 80.2368 19.06 79.4634 18.7C78.7034 18.3267 78.1501 17.76 77.8034 17C77.4701 16.24 77.3034 15.2667 77.3034 14.08C77.3034 12.7867 77.4768 11.76 77.8234 11C78.1701 10.24 78.7168 9.69333 79.4634 9.36C80.2101 9.02667 81.1901 8.86 82.4034 8.86ZM99.5489 8.86C100.856 8.86 101.789 9.26 102.349 10.06C102.922 10.8467 103.209 12.1533 103.209 13.98C103.209 14.74 103.136 15.44 102.989 16.08C102.856 16.72 102.609 17.28 102.249 17.76C101.902 18.2267 101.416 18.5933 100.789 18.86C100.162 19.1133 99.3489 19.24 98.3489 19.24C98.0022 19.24 97.6022 19.22 97.1489 19.18C96.6956 19.1533 96.2289 19.1067 95.7489 19.04C95.2822 18.9867 94.8356 18.9133 94.4089 18.82C93.9822 18.7133 93.6156 18.5933 93.3089 18.46L95.6689 16.76C95.9222 16.84 96.2022 16.9133 96.5089 16.98C96.8156 17.0333 97.1289 17.0733 97.4489 17.1C97.7689 17.1133 98.0489 17.1133 98.2889 17.1C98.7422 17.0867 99.1022 16.9933 99.3689 16.82C99.6489 16.6333 99.8489 16.32 99.9689 15.88C100.089 15.4267 100.149 14.8 100.149 14C100.149 13.2667 100.096 12.7 99.9889 12.3C99.8956 11.8867 99.7156 11.6 99.4489 11.44C99.1956 11.2667 98.8356 11.18 98.3689 11.18C97.9289 11.18 97.5289 11.2733 97.1689 11.46C96.8089 11.6467 96.4089 11.8933 95.9689 12.2L95.7489 10.8C96.0956 10.4267 96.4689 10.0933 96.8689 9.8C97.2689 9.50667 97.6956 9.28 98.1489 9.12C98.6022 8.94667 99.0689 8.86 99.5489 8.86ZM96.2689 5L96.2889 8.2C96.2889 8.65333 96.2622 9.09333 96.2089 9.52C96.1689 9.93333 96.0889 10.34 95.9689 10.74L96.2489 11L96.2689 18.6L93.3089 18.46V5H96.2689ZM110.424 8.86C111.251 8.86 111.951 8.97333 112.524 9.2C113.097 9.41333 113.531 9.78667 113.824 10.32C114.131 10.84 114.284 11.56 114.284 12.48V19H111.924L111.504 16.86L111.304 16.56V12.46C111.304 11.9933 111.191 11.6533 110.964 11.44C110.751 11.2267 110.337 11.12 109.724 11.12C109.217 11.12 108.584 11.14 107.824 11.18C107.064 11.2067 106.284 11.2467 105.484 11.3L105.204 9.34C105.684 9.24667 106.237 9.16667 106.864 9.1C107.491 9.03333 108.117 8.98 108.744 8.94C109.371 8.88667 109.931 8.86 110.424 8.86ZM113.064 12.92L113.044 14.58L108.644 14.6C108.284 14.6 108.024 14.6867 107.864 14.86C107.717 15.0333 107.644 15.2667 107.644 15.56V16.04C107.644 16.3733 107.737 16.6333 107.924 16.82C108.111 16.9933 108.411 17.08 108.824 17.08C109.171 17.08 109.544 17.0067 109.944 16.86C110.357 16.7133 110.764 16.5067 111.164 16.24C111.564 15.9733 111.917 15.66 112.224 15.3V16.58C112.104 16.78 111.924 17.0333 111.684 17.34C111.457 17.6333 111.164 17.9267 110.804 18.22C110.444 18.5 110.024 18.74 109.544 18.94C109.064 19.14 108.517 19.24 107.904 19.24C107.304 19.24 106.764 19.1333 106.284 18.92C105.804 18.7067 105.424 18.3933 105.144 17.98C104.864 17.5667 104.724 17.0533 104.724 16.44V15.42C104.724 14.6333 104.991 14.02 105.524 13.58C106.057 13.14 106.791 12.92 107.724 12.92H113.064ZM121.21 8.86C121.57 8.86 121.963 8.88 122.39 8.92C122.817 8.94667 123.243 9.00667 123.67 9.1C124.11 9.18 124.51 9.3 124.87 9.46L124.55 11.32C124.017 11.3067 123.503 11.2933 123.01 11.28C122.53 11.2667 122.097 11.26 121.71 11.26C121.11 11.26 120.637 11.34 120.29 11.5C119.943 11.66 119.69 11.9467 119.53 12.36C119.383 12.76 119.31 13.32 119.31 14.04C119.31 14.7733 119.383 15.3467 119.53 15.76C119.69 16.1733 119.943 16.46 120.29 16.62C120.637 16.78 121.11 16.86 121.71 16.86C121.923 16.86 122.197 16.8533 122.53 16.84C122.863 16.8267 123.223 16.8133 123.61 16.8C123.997 16.7733 124.377 16.7333 124.75 16.68L125.03 18.56C124.497 18.8 123.89 18.9733 123.21 19.08C122.53 19.1867 121.857 19.24 121.19 19.24C119.963 19.24 118.983 19.0733 118.25 18.74C117.53 18.3933 117.01 17.84 116.69 17.08C116.37 16.32 116.21 15.3067 116.21 14.04C116.21 12.7733 116.37 11.76 116.69 11C117.023 10.24 117.557 9.69333 118.29 9.36C119.023 9.02667 119.997 8.86 121.21 8.86ZM136.346 9.12L133.766 12.56C133.646 12.7467 133.493 12.9267 133.306 13.1C133.119 13.2733 132.966 13.4 132.846 13.48V13.56C132.966 13.6267 133.119 13.7667 133.306 13.98C133.493 14.1933 133.646 14.4067 133.766 14.62L136.686 19H133.386L130.006 13.44L133.046 9.12H136.346ZM129.746 5L129.766 10.78C129.766 11.2467 129.739 11.7 129.686 12.14C129.633 12.58 129.553 13.0133 129.446 13.44C129.539 13.8533 129.613 14.28 129.666 14.72C129.719 15.1467 129.746 15.5467 129.746 15.92V19H126.786V5H129.746ZM131.126 12.6V14.4H128.826V12.6H131.126ZM139.498 15.96C139.884 15.96 140.151 16.04 140.298 16.2C140.444 16.3467 140.524 16.6133 140.538 17V18.28C140.538 18.8 140.491 19.2733 140.398 19.7C140.318 20.1267 140.204 20.52 140.058 20.88C139.911 21.24 139.731 21.5933 139.518 21.94L138.318 21.58C138.424 21.14 138.498 20.7133 138.538 20.3C138.578 19.9 138.604 19.4667 138.618 19C138.058 19 137.771 18.6933 137.758 18.08L137.798 17C137.811 16.6133 137.891 16.3467 138.038 16.2C138.198 16.04 138.464 15.96 138.838 15.96H139.498ZM158.089 5.2L154.329 18.16C154.263 18.4 154.129 18.6 153.929 18.76C153.743 18.92 153.516 19 153.249 19H150.449C150.169 19 149.929 18.92 149.729 18.76C149.543 18.6 149.423 18.4 149.369 18.16L145.589 5.2H148.749L151.269 15.16C151.323 15.4133 151.376 15.6733 151.429 15.94C151.496 16.1933 151.549 16.4467 151.589 16.7H152.109C152.149 16.4467 152.196 16.1867 152.249 15.92C152.316 15.6533 152.383 15.3933 152.449 15.14L154.949 5.2H158.089ZM162.462 9.12V19H159.522V9.12H162.462ZM161.642 4.76C162.229 4.76 162.522 5.06 162.522 5.66V6.72C162.522 7.32 162.229 7.62 161.642 7.62H160.362C159.776 7.62 159.482 7.32 159.482 6.72V5.66C159.482 5.06 159.776 4.76 160.362 4.76H161.642ZM171.85 8.86C173.716 8.86 174.65 9.77333 174.65 11.6V19H171.69V12.52C171.69 12.08 171.61 11.78 171.45 11.62C171.29 11.4467 171.016 11.36 170.63 11.36C170.203 11.36 169.763 11.4467 169.31 11.62C168.856 11.78 168.296 12.0333 167.63 12.38L167.49 10.72C168.196 10.12 168.916 9.66 169.65 9.34C170.396 9.02 171.13 8.86 171.85 8.86ZM167.35 9.12L167.69 11.08L167.93 11.34V19H164.97V9.12H167.35ZM181.581 8.86C181.941 8.86 182.335 8.88 182.761 8.92C183.188 8.94667 183.615 9.00667 184.041 9.1C184.481 9.18 184.881 9.3 185.241 9.46L184.921 11.32C184.388 11.3067 183.875 11.2933 183.381 11.28C182.901 11.2667 182.468 11.26 182.081 11.26C181.481 11.26 181.008 11.34 180.661 11.5C180.315 11.66 180.061 11.9467 179.901 12.36C179.755 12.76 179.681 13.32 179.681 14.04C179.681 14.7733 179.755 15.3467 179.901 15.76C180.061 16.1733 180.315 16.46 180.661 16.62C181.008 16.78 181.481 16.86 182.081 16.86C182.295 16.86 182.568 16.8533 182.901 16.84C183.235 16.8267 183.595 16.8133 183.981 16.8C184.368 16.7733 184.748 16.7333 185.121 16.68L185.401 18.56C184.868 18.8 184.261 18.9733 183.581 19.08C182.901 19.1867 182.228 19.24 181.561 19.24C180.335 19.24 179.355 19.0733 178.621 18.74C177.901 18.3933 177.381 17.84 177.061 17.08C176.741 16.32 176.581 15.3067 176.581 14.04C176.581 12.7733 176.741 11.76 177.061 11C177.395 10.24 177.928 9.69333 178.661 9.36C179.395 9.02667 180.368 8.86 181.581 8.86ZM191.72 8.86C193.387 8.86 194.58 9.14667 195.3 9.72C196.033 10.28 196.4 11.12 196.4 12.24C196.413 13.1467 196.187 13.8267 195.72 14.28C195.253 14.72 194.447 14.94 193.3 14.94H187.78V13.28H192.48C192.933 13.28 193.22 13.1867 193.34 13C193.473 12.8 193.54 12.5267 193.54 12.18C193.527 11.7133 193.387 11.3933 193.12 11.22C192.867 11.0333 192.433 10.94 191.82 10.94C191.273 10.94 190.847 11.0133 190.54 11.16C190.233 11.3067 190.02 11.5867 189.9 12C189.78 12.4133 189.72 13.0133 189.72 13.8C189.72 14.6267 189.793 15.2667 189.94 15.72C190.087 16.16 190.333 16.4667 190.68 16.64C191.04 16.8133 191.533 16.9 192.16 16.9C192.613 16.9 193.173 16.8867 193.84 16.86C194.52 16.82 195.2 16.76 195.88 16.68L196.16 18.5C195.773 18.6867 195.333 18.8333 194.84 18.94C194.347 19.0467 193.84 19.12 193.32 19.16C192.8 19.2133 192.3 19.24 191.82 19.24C190.567 19.24 189.553 19.06 188.78 18.7C188.02 18.3267 187.467 17.76 187.12 17C186.787 16.24 186.62 15.2667 186.62 14.08C186.62 12.7867 186.793 11.76 187.14 11C187.487 10.24 188.033 9.69333 188.78 9.36C189.527 9.02667 190.507 8.86 191.72 8.86ZM205.209 8.86C207.076 8.86 208.009 9.77333 208.009 11.6V19H205.049V12.52C205.049 12.08 204.969 11.78 204.809 11.62C204.649 11.4467 204.376 11.36 203.989 11.36C203.562 11.36 203.122 11.4467 202.669 11.62C202.216 11.78 201.656 12.0333 200.989 12.38L200.849 10.72C201.556 10.12 202.276 9.66 203.009 9.34C203.756 9.02 204.489 8.86 205.209 8.86ZM200.709 9.12L201.049 11.08L201.289 11.34V19H198.329V9.12H200.709ZM214.201 6.38V15.84C214.201 16.2 214.281 16.46 214.441 16.62C214.614 16.7667 214.894 16.84 215.281 16.84H216.561L216.881 18.84C216.641 18.92 216.347 18.9867 216.001 19.04C215.654 19.1067 215.307 19.1533 214.961 19.18C214.614 19.22 214.321 19.24 214.081 19.24C213.187 19.24 212.487 19 211.981 18.52C211.487 18.04 211.241 17.3667 211.241 16.5L211.221 6.38H214.201ZM216.961 9.12V11.06H209.501V9.22L211.421 9.12H216.961ZM221.66 20.4H241.66V0.4H221.66V20.4Z" fill="#1C1D22"/>
</svg>
